<?xml version="1.0" standalone="no"?>
<!DOCTYPE svg PUBLIC "-//W3C//DTD SVG 20010904//EN"
 "http://www.w3.org/TR/2001/REC-SVG-20010904/DTD/svg10.dtd">
<svg version="1.0" xmlns="http://www.w3.org/2000/svg"
 width="243.000000pt" height="242.000000pt" viewBox="0 0 243.000000 242.000000"
 preserveAspectRatio="xMidYMid meet">
<metadata>
Created by potrace 1.15, written by Peter Selinger 2001-2017
</metadata>
<g transform="translate(0.000000,242.000000) scale(0.100000,-0.100000)"
fill="#000000" stroke="none">
<path d="M1205 2303 c-17 -30 -58 -81 -93 -114 -77 -72 -102 -113 -102 -163 0
-47 34 -110 68 -125 l25 -12 -35 -24 c-21 -14 -42 -41 -52 -65 l-16 -40 -30
15 c-33 17 -106 20 -115 5 -4 -6 -11 -8 -16 -4 -5 3 -7 10 -3 15 24 39 13 106
-24 147 -42 46 -63 52 -189 57 -69 2 -136 10 -160 19 -24 8 -43 13 -43 11 0
-2 7 -30 15 -62 8 -32 15 -100 15 -154 0 -106 6 -130 43 -171 32 -37 73 -51
125 -43 42 6 44 6 36 -17 -10 -31 -8 -73 5 -97 16 -30 14 -38 -16 -46 -15 -3
-44 -24 -65 -46 l-38 -39 -16 25 c-39 59 -132 84 -184 48 -14 -9 -63 -52 -109
-95 -46 -43 -99 -83 -117 -90 -41 -15 -43 -25 -7 -39 30 -11 116 -82 178 -145
48 -50 96 -66 156 -53 40 9 89 48 89 70 0 18 25 9 35 -13 13 -28 55 -58 83
-61 27 -2 27 -4 3 -52 -14 -28 -16 -47 -10 -73 10 -46 5 -52 -30 -42 -61 17
-133 -18 -158 -77 -7 -19 -16 -85 -19 -146 -3 -62 -12 -133 -19 -160 -8 -26
-12 -47 -11 -47 2 0 21 7 42 16 27 12 79 18 169 21 140 5 157 10 199 66 21 29
27 85 12 125 -7 22 -6 23 12 13 29 -16 93 -13 116 4 28 21 46 19 46 -6 0 -31
29 -74 63 -94 l30 -18 -30 -12 c-45 -19 -72 -69 -69 -129 2 -56 7 -65 109
-170 32 -34 70 -83 84 -110 l25 -49 29 54 c17 30 60 86 98 124 37 39 74 81 82
95 30 50 3 156 -46 178 -30 14 -32 28 -7 36 23 8 57 53 65 88 l7 27 36 -21
c28 -17 45 -19 86 -15 45 6 49 4 42 -11 -12 -27 -6 -91 12 -121 31 -53 66 -64
214 -71 74 -3 145 -12 157 -18 36 -20 41 -14 25 31 -9 26 -16 90 -19 167 -3
108 -7 129 -26 157 -31 46 -89 72 -139 63 -37 -7 -59 2 -38 15 23 14 6 108
-23 126 -5 4 11 14 36 24 43 16 87 54 87 75 0 6 5 10 10 10 6 0 10 -5 10 -10
0 -6 13 -24 30 -41 22 -23 41 -33 74 -36 69 -8 89 1 178 86 46 43 106 90 133
104 l50 25 -30 12 c-16 6 -30 10 -30 8 0 -5 -68 58 -109 101 -65 69 -114 101
-156 101 -58 0 -99 -19 -125 -58 l-24 -35 -18 31 c-18 31 -34 43 -85 62 l-28
9 22 42 c18 36 20 47 11 81 -11 41 -6 52 17 37 8 -5 31 -9 51 -9 41 0 100 39
120 80 7 14 15 81 19 150 4 69 12 140 19 159 6 19 9 37 6 39 -3 3 -22 -2 -44
-10 -26 -11 -78 -16 -157 -17 -125 -2 -151 -10 -194 -56 -21 -23 -25 -36 -25
-91 0 -68 4 -65 -53 -49 -11 3 -35 -1 -55 -10 -47 -19 -57 -19 -57 3 -1 27
-23 59 -59 86 l-33 25 32 16 c55 28 77 121 45 189 -9 18 -39 55 -68 83 -72 69
-93 96 -114 142 l-18 40 -30 -56z m128 -157 c62 -63 80 -99 73 -141 -12 -64
-81 -92 -130 -54 -14 11 -26 24 -26 29 0 4 16 24 35 43 24 24 35 44 35 64 -1
82 -111 116 -162 50 -28 -36 -22 -75 17 -114 40 -40 41 -44 17 -66 -54 -49
-129 -16 -139 59 -5 40 -3 44 65 115 38 41 80 86 93 100 l23 26 25 -31 c14
-17 47 -53 74 -80z m-580 -213 c16 -8 35 -31 44 -51 13 -32 13 -39 -1 -69 -16
-34 -45 -47 -87 -41 -22 3 -24 7 -21 46 5 53 -17 88 -61 100 -85 23 -143 -77
-81 -143 22 -24 31 -27 70 -22 40 4 45 2 50 -18 14 -55 -42 -106 -99 -91 -61
15 -77 61 -76 221 l0 90 117 -4 c76 -2 127 -8 145 -18z m1211 -116 c-4 -67
-11 -130 -15 -139 -16 -30 -68 -60 -93 -54 -46 11 -69 40 -68 81 1 21 3 39 4
41 2 1 19 -1 38 -5 44 -9 72 2 93 39 23 39 21 63 -9 99 -36 43 -84 43 -126 1
-27 -28 -30 -35 -23 -75 6 -45 6 -45 -24 -45 -17 0 -42 11 -59 25 -25 21 -30
32 -27 62 7 72 44 86 228 90 l88 2 -7 -122z m-768 -13 l34 -36 20 24 c11 12
19 26 20 29 0 11 51 20 79 14 15 -3 35 -19 44 -34 18 -31 23 -91 8 -91 -5 0
-12 -8 -16 -17 -3 -10 -41 -55 -84 -101 -65 -68 -80 -80 -85 -65 -3 10 -37 50
-75 90 -77 79 -99 128 -78 172 13 27 50 51 81 51 10 0 34 -16 52 -36z m-240
-76 c38 -26 42 -43 46 -188 l2 -105 -95 3 c-173 5 -207 19 -216 91 -4 28 0 41
18 60 19 20 29 23 71 19 l50 -5 -5 31 c-14 94 55 144 129 94z m649 -12 c25
-22 27 -29 22 -69 l-6 -45 49 1 c54 1 74 -11 88 -52 14 -41 -9 -88 -52 -106
-49 -21 -268 -21 -260 -1 5 12 10 90 13 198 2 81 87 124 146 74z m-485 -147
c30 -34 67 -83 81 -109 l26 -47 19 36 c21 40 37 59 105 133 29 31 49 46 54 39
10 -18 -3 -170 -19 -223 -8 -27 -14 -48 -12 -48 2 0 23 7 46 15 55 19 230 31
230 15 0 -21 -122 -126 -184 -157 l-40 -20 45 -20 c59 -27 187 -150 164 -159
-21 -8 -168 3 -219 17 -21 6 -40 8 -43 5 -3 -3 2 -26 11 -52 16 -48 23 -214 9
-214 -17 0 -133 136 -153 178 l-22 45 -24 -50 c-25 -50 -138 -172 -150 -161
-12 13 -4 179 11 221 18 52 19 62 3 50 -24 -19 -106 -33 -187 -33 -45 0 -81 2
-81 6 0 16 133 126 206 170 17 10 16 13 -17 27 -20 8 -46 23 -59 33 -39 32
-120 115 -120 122 0 12 172 2 225 -13 27 -8 50 -13 52 -12 1 2 -5 23 -14 47
-20 57 -27 220 -10 220 7 0 37 -28 67 -61z m-653 -198 c43 -36 38 -107 -9
-132 -19 -10 -24 -9 -33 6 -23 40 -45 55 -82 55 -46 -1 -70 -17 -83 -57 -13
-35 3 -89 22 -77 7 4 8 3 4 -4 -9 -14 25 -32 61 -32 31 0 67 25 76 53 9 23 19
22 47 -8 16 -17 24 -37 24 -61 0 -47 -33 -73 -91 -74 -39 0 -47 5 -120 79 -43
43 -86 83 -97 88 -17 9 -16 12 15 36 19 14 62 53 97 87 57 54 68 60 105 60 26
-1 51 -8 64 -19z m320 -43 c37 -35 75 -71 85 -80 10 -10 23 -18 29 -18 19 0 5
-16 -90 -104 -101 -93 -123 -101 -181 -71 -20 11 -31 25 -35 49 -6 32 7 76 23
76 4 0 15 7 26 15 18 13 17 16 -18 48 -27 26 -36 43 -36 66 0 46 38 81 89 81
36 0 48 -7 108 -62z m1042 21 c13 -12 21 -32 21 -52 -1 -35 -12 -54 -48 -79
l-23 -15 36 -28 c27 -22 35 -36 35 -61 0 -46 -9 -63 -41 -79 -52 -27 -74 -20
-151 53 -40 38 -86 80 -103 95 -16 15 -25 27 -18 27 6 0 38 25 70 56 101 98
130 115 180 106 12 -2 31 -13 42 -23z m243 18 c15 -7 65 -48 111 -91 l85 -79
-36 -31 c-21 -18 -57 -52 -82 -77 -52 -51 -99 -74 -135 -65 -66 17 -88 96 -39
141 27 25 44 25 44 0 0 -22 50 -55 82 -55 40 0 88 48 88 89 0 32 -34 75 -69
86 -27 8 -89 -22 -96 -46 -14 -43 -75 2 -75 55 1 37 18 62 51 75 31 13 39 12
71 -2z m-1081 -381 c2 -2 2 -61 -1 -130 -6 -141 -14 -157 -80 -174 -35 -9 -42
-7 -65 14 -19 18 -25 33 -25 67 0 27 6 49 15 57 10 9 15 9 15 1 0 -6 17 -11
40 -11 31 0 43 5 56 25 25 39 21 75 -12 102 -36 28 -64 29 -92 3 -28 -26 -37
-62 -22 -90 15 -28 10 -32 -48 -38 -44 -4 -51 -2 -70 23 -12 15 -22 39 -22 53
0 33 39 90 65 95 27 6 241 8 246 3z m469 -3 c0 -5 39 -8 88 -7 77 0 104 -2
162 -17 34 -9 50 -76 29 -123 -12 -27 -60 -41 -102 -31 -24 6 -25 5 -20 -37 4
-33 0 -49 -16 -69 -28 -36 -51 -40 -99 -19 -29 13 -43 27 -51 52 -13 41 -14
258 -1 258 6 0 10 -3 10 -7z m-164 -179 c96 -104 94 -101 94 -142 0 -40 -38
-82 -74 -82 -39 0 -76 21 -82 47 -8 30 -18 29 -38 -2 -21 -32 -65 -53 -95 -46
-30 8 -57 45 -65 88 -5 30 1 39 79 120 47 49 85 91 85 96 0 19 24 0 96 -79z
m-654 -36 c13 -15 18 -34 16 -58 l-3 -35 -52 0 c-42 0 -55 -4 -72 -24 -12 -13
-22 -30 -22 -38 -1 -7 -2 -19 -3 -25 -4 -24 28 -67 56 -77 32 -11 71 -1 101
27 14 13 18 28 15 67 l-3 50 38 1 c52 1 81 -34 74 -89 -9 -70 -31 -80 -181
-85 l-131 -4 3 113 c6 156 28 198 106 199 28 0 44 -6 58 -22z m1254 -4 c43
-20 52 -52 56 -197 l3 -108 -105 6 c-58 3 -119 8 -137 11 -64 10 -96 96 -53
142 27 29 117 33 105 5 -16 -39 -17 -54 -6 -82 21 -50 87 -66 128 -32 32 27
45 65 33 97 -18 46 -49 64 -100 58 l-46 -5 4 41 c3 28 12 46 29 60 31 24 45
25 89 4z m-719 -306 c29 -27 29 -44 0 -52 -37 -9 -59 -67 -43 -114 8 -25 54
-52 88 -52 37 1 69 35 75 80 5 37 2 43 -32 76 l-38 35 23 25 c41 42 111 28
134 -28 21 -49 8 -76 -80 -167 -46 -47 -84 -88 -84 -93 0 -4 -7 -5 -15 -2 -8
4 -15 11 -15 16 0 5 -30 40 -66 76 -96 96 -111 145 -61 200 27 29 82 30 114 0z"/>
<path d="M1220 1749 c0 -5 -3 -8 -7 -8 -23 4 -34 -4 -49 -32 -28 -55 2 -109
61 -109 83 0 102 105 26 143 -17 9 -31 11 -31 6z"/>
<path d="M862 1603 c-55 -27 -53 -101 3 -127 37 -18 62 -13 87 18 33 40 12
106 -38 118 -12 3 -35 -1 -52 -9z"/>
<path d="M1510 1588 c-41 -44 -38 -97 6 -116 40 -19 71 -14 93 14 28 36 26 72
-5 100 -32 30 -67 31 -94 2z"/>
<path d="M1180 1293 c-65 -26 -66 -134 -1 -168 52 -26 107 -3 131 56 29 68
-56 141 -130 112z m93 -41 c40 -35 9 -112 -45 -112 -34 0 -68 24 -68 47 0 8
-5 11 -10 8 -10 -6 7 40 23 62 18 25 68 22 100 -5z"/>
<path d="M722 1283 c-14 -6 -42 -55 -42 -76 0 -23 39 -61 67 -65 74 -10 112
70 60 126 -19 21 -55 27 -85 15z"/>
<path d="M1635 1255 c-30 -30 -32 -64 -4 -99 41 -53 129 -18 129 51 0 32 -42
73 -75 73 -14 0 -37 -11 -50 -25z"/>
<path d="M1520 943 c-50 -19 -63 -73 -29 -117 25 -32 60 -34 100 -5 68 48 8
151 -71 122z"/>
<path d="M1183 810 c-47 -19 -56 -78 -18 -115 48 -49 125 -16 125 52 0 49 -58
83 -107 63z"/>
<path d="M913 1980 c-12 -5 -29 -20 -38 -34 -14 -22 -15 -28 -1 -60 27 -64 98
-67 127 -5 15 30 15 37 2 62 -11 21 -53 51 -66 46 -1 0 -12 -4 -24 -9z"/>
<path d="M1482 1973 c-7 -3 -19 -18 -27 -34 -14 -25 -14 -33 -1 -64 16 -37 48
-52 90 -41 31 8 59 72 43 101 -20 39 -64 55 -105 38z"/>
<path d="M493 1570 c-25 -10 -43 -39 -43 -69 0 -28 46 -71 76 -71 32 0 74 42
74 73 0 51 -59 87 -107 67z"/>
<path d="M1899 1558 c-47 -16 -63 -79 -29 -116 37 -39 114 -23 124 26 14 63
-36 110 -95 90z"/>
<path d="M471 981 c-53 -41 -19 -131 49 -130 40 0 70 32 70 73 0 66 -66 98
-119 57z"/>
<path d="M1877 968 c-55 -42 -26 -128 43 -128 62 0 92 65 54 118 -17 25 -69
30 -97 10z"/>
<path d="M889 574 c-66 -35 -40 -134 35 -134 37 0 49 7 65 37 17 32 13 60 -10
82 -27 25 -61 31 -90 15z"/>
<path d="M1480 573 c-50 -19 -64 -80 -26 -118 30 -30 65 -32 97 -7 27 23 32
48 17 85 -16 40 -48 55 -88 40z"/>
</g>
</svg>
